<?xml version="1.0" encoding="UTF-8"?>
<!--Generator: CustomSymbols by @serious_bret-->
<!DOCTYPE svg
PUBLIC "-//W3C//DTD SVG 1.1//EN"
       "http://www.w3.org/Graphics/SVG/1.1/DTD/svg11.dtd">
<svg version="1.1" xmlns="http://www.w3.org/2000/svg" xmlns:xlink="http://www.w3.org/1999/xlink" width="3300" height="2200">
 <g id="Notes">
  <rect height="2200" id="artboard" style="fill:white;opacity:1" width="3300" x="0" y="0"/>
  <line id="" style="fill:none;stroke:black;opacity:1;stroke-width:0.5;" x1="263" x2="3036" y1="292" y2="292"/>
  <text id="reftext1" style="stroke:none;fill:black;font-family:-apple-system,&quot;SF Pro Display&quot;,&quot;SF Pro Text&quot;,Helvetica,sans-serif;font-weight:bold;" transform="matrix(1 0 0 1 263 322)">Weight/Scale Variations</text>
  <text id="reftext2" style="stroke:none;fill:black;font-family:-apple-system,&quot;SF Pro Display&quot;,&quot;SF Pro Text&quot;,Helvetica,sans-serif;text-anchor:middle;" transform="matrix(1 0 0 1 559.711 322)">Ultralight</text>
  <text style="stroke:none;fill:black;font-family:-apple-system,&quot;SF Pro Display&quot;,&quot;SF Pro Text&quot;,Helvetica,sans-serif;text-anchor:middle;" transform="matrix(1 0 0 1 856.422 322)">Thin</text>
  <text style="stroke:none;fill:black;font-family:-apple-system,&quot;SF Pro Display&quot;,&quot;SF Pro Text&quot;,Helvetica,sans-serif;text-anchor:middle;" transform="matrix(1 0 0 1 1153.13 322)">Light</text>
  <text style="stroke:none;fill:black;font-family:-apple-system,&quot;SF Pro Display&quot;,&quot;SF Pro Text&quot;,Helvetica,sans-serif;text-anchor:middle;" transform="matrix(1 0 0 1 1449.84 322)">Regular</text>
  <text style="stroke:none;fill:black;font-family:-apple-system,&quot;SF Pro Display&quot;,&quot;SF Pro Text&quot;,Helvetica,sans-serif;text-anchor:middle;" transform="matrix(1 0 0 1 1746.56 322)">Medium</text>
  <text style="stroke:none;fill:black;font-family:-apple-system,&quot;SF Pro Display&quot;,&quot;SF Pro Text&quot;,Helvetica,sans-serif;text-anchor:middle;" transform="matrix(1 0 0 1 2043.27 322)">Semibold</text>
  <text style="stroke:none;fill:black;font-family:-apple-system,&quot;SF Pro Display&quot;,&quot;SF Pro Text&quot;,Helvetica,sans-serif;text-anchor:middle;" transform="matrix(1 0 0 1 2339.98 322)">Bold</text>
  <text style="stroke:none;fill:black;font-family:-apple-system,&quot;SF Pro Display&quot;,&quot;SF Pro Text&quot;,Helvetica,sans-serif;text-anchor:middle;" transform="matrix(1 0 0 1 2636.69 322)">Heavy</text>
  <text style="stroke:none;fill:black;font-family:-apple-system,&quot;SF Pro Display&quot;,&quot;SF Pro Text&quot;,Helvetica,sans-serif;text-anchor:middle;" transform="matrix(1 0 0 1 2933.4 322)">Black</text>
  <line id="" style="fill:none;stroke:black;opacity:1;stroke-width:0.5;" x1="263" x2="3036" y1="1903" y2="1903"/>
  <g id="" transform="matrix(1 0 0 1 263 1933)">
   <path d="M9.24805 0.830078C13.5547 0.830078 17.1387-2.74414 17.1387-7.05078C17.1387-11.3574 13.5449-14.9316 9.23828-14.9316C4.94141-14.9316 1.36719-11.3574 1.36719-7.05078C1.36719-2.74414 4.95117 0.830078 9.24805 0.830078ZM9.24805-0.654297C5.70312-0.654297 2.87109-3.49609 2.87109-7.05078C2.87109-10.6055 5.69336-13.4473 9.23828-13.4473C12.793-13.4473 15.6348-10.6055 15.6445-7.05078C15.6543-3.49609 12.8027-0.654297 9.24805-0.654297ZM6.39648-6.31836L8.50586-6.31836L8.50586-4.19922C8.50586-3.75977 8.79883-3.45703 9.22852-3.45703C9.67773-3.45703 9.9707-3.75977 9.9707-4.19922L9.9707-6.31836L12.0996-6.31836C12.5391-6.31836 12.8418-6.61133 12.8418-7.04102C12.8418-7.48047 12.5391-7.7832 12.0996-7.7832L9.9707-7.7832L9.9707-9.89258C9.9707-10.3418 9.67773-10.6445 9.22852-10.6445C8.79883-10.6445 8.50586-10.3418 8.50586-9.89258L8.50586-7.7832L6.39648-7.7832C5.94727-7.7832 5.64453-7.48047 5.64453-7.04102C5.64453-6.61133 5.94727-6.31836 6.39648-6.31836Z"/>
  </g>
  <g id="" transform="matrix(1 0 0 1 281.506 1933)">
   <path d="M11.709 2.91016C17.1582 2.91016 21.6699-1.61133 21.6699-7.05078C21.6699-12.5 17.1484-17.0117 11.6992-17.0117C6.25977-17.0117 1.74805-12.5 1.74805-7.05078C1.74805-1.61133 6.26953 2.91016 11.709 2.91016ZM11.709 1.25C7.09961 1.25 3.41797-2.44141 3.41797-7.05078C3.41797-11.6602 7.08984-15.3516 11.6992-15.3516C16.3086-15.3516 20-11.6602 20.0098-7.05078C20.0195-2.44141 16.3184 1.25 11.709 1.25ZM7.98828-6.23047L10.8789-6.23047L10.8789-3.32031C10.8789-2.83203 11.2109-2.5 11.6895-2.5C12.1777-2.5 12.5195-2.83203 12.5195-3.32031L12.5195-6.23047L15.4297-6.23047C15.918-6.23047 16.25-6.5625 16.25-7.04102C16.25-7.5293 15.918-7.87109 15.4297-7.87109L12.5195-7.87109L12.5195-10.7617C12.5195-11.2695 12.1777-11.6016 11.6895-11.6016C11.2109-11.6016 10.8789-11.2598 10.8789-10.7617L10.8789-7.87109L7.98828-7.87109C7.48047-7.87109 7.14844-7.5293 7.14844-7.04102C7.14844-6.5625 7.49023-6.23047 7.98828-6.23047Z"/>
  </g>
  <g id="" transform="matrix(1 0 0 1 304.924 1933)">
   <path d="M14.9707 5.66406C21.9336 5.66406 27.6953-0.0976562 27.6953-7.05078C27.6953-14.0137 21.9238-19.7754 14.9609-19.7754C8.00781-19.7754 2.25586-14.0137 2.25586-7.05078C2.25586-0.0976562 8.01758 5.66406 14.9707 5.66406ZM14.9707 3.84766C8.93555 3.84766 4.08203-1.01562 4.08203-7.05078C4.08203-13.0957 8.92578-17.9492 14.9609-17.9492C21.0059-17.9492 25.8594-13.0957 25.8691-7.05078C25.8789-1.01562 21.0156 3.84766 14.9707 3.84766ZM10.0586-6.14258L14.0625-6.14258L14.0625-2.12891C14.0625-1.5918 14.4336-1.2207 14.9512-1.2207C15.4883-1.2207 15.8594-1.5918 15.8594-2.12891L15.8594-6.14258L19.8828-6.14258C20.4102-6.14258 20.791-6.51367 20.791-7.03125C20.791-7.56836 20.4199-7.94922 19.8828-7.94922L15.8594-7.94922L15.8594-11.9531C15.8594-12.5098 15.4883-12.8809 14.9512-12.8809C14.4336-12.8809 14.0625-12.5 14.0625-11.9531L14.0625-7.94922L10.0586-7.94922C9.50195-7.94922 9.13086-7.56836 9.13086-7.03125C9.13086-6.51367 9.51172-6.14258 10.0586-6.14258Z"/>
  </g>
  <text style="stroke:none;fill:black;font-family:-apple-system,&quot;SF Pro Display&quot;,&quot;SF Pro Text&quot;,Helvetica,sans-serif;font-weight:bold;" transform="matrix(1 0 0 1 263 1953)">Design Variations</text>
  <text style="stroke:none;fill:black;font-family:-apple-system,&quot;SF Pro Display&quot;,&quot;SF Pro Text&quot;,Helvetica,sans-serif;" transform="matrix(1 0 0 1 263 1971)">Symbols are supported in up to nine weights and three scales.</text>
  <text style="stroke:none;fill:black;font-family:-apple-system,&quot;SF Pro Display&quot;,&quot;SF Pro Text&quot;,Helvetica,sans-serif;" transform="matrix(1 0 0 1 263 1989)">For optimal layout with text and other symbols, vertically align</text>
  <text style="stroke:none;fill:black;font-family:-apple-system,&quot;SF Pro Display&quot;,&quot;SF Pro Text&quot;,Helvetica,sans-serif;" transform="matrix(1 0 0 1 263 2007)">symbols with the adjacent text.</text>
  <line id="" style="fill:none;stroke:#00AEEF;stroke-width:0.5;opacity:1.0;" x1="776" x2="776" y1="1919" y2="1933"/>
  <g id="" transform="matrix(1 0 0 1 776 1933)">
   <path d="M3.31055 0.126953C3.82812 0.126953 4.08203-0.0683594 4.26758-0.605469L5.52734-4.0625L11.2891-4.0625L12.5488-0.605469C12.7344-0.0683594 12.9883 0.126953 13.4961 0.126953C14.0137 0.126953 14.3457-0.185547 14.3457-0.673828C14.3457-0.839844 14.3164-0.986328 14.2383-1.20117L9.6582-13.3887C9.43359-13.9941 9.0332-14.2871 8.4082-14.2871C7.80273-14.2871 7.39258-13.9941 7.17773-13.3984L2.59766-1.19141C2.51953-0.976562 2.49023-0.830078 2.49023-0.664062C2.49023-0.175781 2.80273 0.126953 3.31055 0.126953ZM6.00586-5.53711L8.37891-12.1094L8.42773-12.1094L10.8008-5.53711Z"/>
  </g>
  <line id="" style="fill:none;stroke:#00AEEF;stroke-width:0.5;opacity:1.0;" x1="792.836" x2="792.836" y1="1919" y2="1933"/>
  <text style="stroke:none;fill:black;font-family:-apple-system,&quot;SF Pro Display&quot;,&quot;SF Pro Text&quot;,Helvetica,sans-serif;font-weight:bold;" transform="matrix(1 0 0 1 776 1953)">Margins</text>
  <text style="stroke:none;fill:black;font-family:-apple-system,&quot;SF Pro Display&quot;,&quot;SF Pro Text&quot;,Helvetica,sans-serif;" transform="matrix(1 0 0 1 776 1971)">Leading and trailing margins on the left and right side of each symbol</text>
  <text style="stroke:none;fill:black;font-family:-apple-system,&quot;SF Pro Display&quot;,&quot;SF Pro Text&quot;,Helvetica,sans-serif;" transform="matrix(1 0 0 1 776 1989)">can be adjusted by modifying the x-location of the margin guidelines.</text>
  <text style="stroke:none;fill:black;font-family:-apple-system,&quot;SF Pro Display&quot;,&quot;SF Pro Text&quot;,Helvetica,sans-serif;" transform="matrix(1 0 0 1 776 2007)">Modifications are automatically applied proportionally to all</text>
  <text style="stroke:none;fill:black;font-family:-apple-system,&quot;SF Pro Display&quot;,&quot;SF Pro Text&quot;,Helvetica,sans-serif;" transform="matrix(1 0 0 1 776 2025)">scales and weights.</text>
  <g id="" transform="matrix(1 0 0 1 1289 1933)">
   <path d="M2.8418 1.86523L4.54102 3.57422C5.40039 4.44336 6.38672 4.38477 7.31445 3.35938L17.4902-7.85156C17.7539-7.76367 18.0273-7.7832 18.3398-7.8418L19.4043-8.03711L20.0684-7.36328L20.0293-6.80664C19.9902-6.30859 20.1172-5.92773 20.6055-5.44922L21.3672-4.70703C21.8457-4.22852 22.4609-4.19922 22.9297-4.66797L25.8398-7.58789C26.3086-8.05664 26.2891-8.65234 25.8105-9.13086L25.0391-9.89258C24.5605-10.3711 24.1895-10.5273 23.7109-10.4883L23.1348-10.4395L22.4902-11.0742L22.7344-12.1973C22.8613-12.7637 22.7051-13.2031 22.1191-13.7891L19.9219-15.9766C16.582-19.2969 12.1484-19.2188 9.25781-16.3281C8.83789-15.918 8.80859-15.3418 9.04297-14.9512C9.27734-14.5898 9.73633-14.3555 10.3809-14.5215C11.8457-14.8633 13.3691-14.9219 14.7949-13.9844L14.209-12.5293C14.0137-12.0508 13.9844-11.6504 14.1113-11.2891L3.04688-0.898438C2.06055 0.0195312 1.98242 0.996094 2.8418 1.86523ZM10.752-15.957C13.1836-17.7344 16.4746-17.4316 18.7012-15.2051L21.1328-12.793C21.3672-12.5586 21.4062-12.373 21.3379-12.0312L21.0156-10.5469L22.5195-9.0625L23.5059-9.12109C23.7598-9.13086 23.8379-9.11133 24.0332-8.91602L24.6094-8.33984L22.168-5.89844L21.5918-6.47461C21.3965-6.66992 21.3672-6.74805 21.377-7.01172L21.4453-7.98828L19.9512-9.47266L18.4277-9.21875C18.1055-9.15039 17.959-9.17969 17.7148-9.41406L15.7129-11.416C15.459-11.6504 15.4297-11.8164 15.5859-12.1875L16.4648-14.2773C14.9023-15.7324 12.8711-16.3574 10.8398-15.7617C10.6836-15.7227 10.625-15.8496 10.752-15.957ZM5.27344 2.30469L4.10156 1.14258C3.63281 0.683594 3.74023 0.341797 4.14062-0.0195312L14.9512-10.1953L16.416-8.71094L6.42578 2.27539C6.07422 2.67578 5.74219 2.77344 5.27344 2.30469Z"/>
  </g>
  <text style="stroke:none;fill:black;font-family:-apple-system,&quot;SF Pro Display&quot;,&quot;SF Pro Text&quot;,Helvetica,sans-serif;font-weight:bold;" transform="matrix(1 0 0 1 1289 1953)">Exporting</text>
  <text style="stroke:none;fill:black;font-family:-apple-system,&quot;SF Pro Display&quot;,&quot;SF Pro Text&quot;,Helvetica,sans-serif;" transform="matrix(1 0 0 1 1289 1971)">Symbols should be outlined when exporting to ensure the</text>
  <text style="stroke:none;fill:black;font-family:-apple-system,&quot;SF Pro Display&quot;,&quot;SF Pro Text&quot;,Helvetica,sans-serif;" transform="matrix(1 0 0 1 1289 1989)">design is preserved when submitting to Xcode.</text>
  <text id="template-version" style="stroke:none;fill:black;font-family:-apple-system,&quot;SF Pro Display&quot;,&quot;SF Pro Text&quot;,Helvetica,sans-serif;text-anchor:end;" transform="matrix(1 0 0 1 3036 1933)">Template v.2.0</text>
  <text style="stroke:none;fill:black;font-family:-apple-system,&quot;SF Pro Display&quot;,&quot;SF Pro Text&quot;,Helvetica,sans-serif;text-anchor:end;" transform="matrix(1 0 0 1 3036 1951)">Requires Xcode 12 or greater</text>
  <text style="stroke:none;fill:black;font-family:-apple-system,&quot;SF Pro Display&quot;,&quot;SF Pro Text&quot;,Helvetica,sans-serif;" transform="matrix(1 0 0 1 263 726)">Small</text>
  <text style="stroke:none;fill:black;font-family:-apple-system,&quot;SF Pro Display&quot;,&quot;SF Pro Text&quot;,Helvetica,sans-serif;" transform="matrix(1 0 0 1 263 1156)">Medium</text>
  <text style="stroke:none;fill:black;font-family:-apple-system,&quot;SF Pro Display&quot;,&quot;SF Pro Text&quot;,Helvetica,sans-serif;" transform="matrix(1 0 0 1 263 1586)">Large</text>
 </g>
 <g id="Guides">
  <g id="H-reference" style="fill:#27AAE1;stroke:none;" transform="matrix(1 0 0 1 339 696)">
   <path d="M0.976562 0L3.66211 0L12.9883-24.4629L45.752-24.4629L55.127 0L57.7637 0L30.6152-70.459L28.125-70.459ZM29.3457-67.1387L29.4434-67.1387L44.873-26.709L13.8672-26.709Z"/>
  </g>
  <line id="Baseline-S" style="fill:none;stroke:#27AAE1;opacity:1;stroke-width:0.5;" x1="263" x2="3036" y1="696" y2="696"/>
  <line id="Capline-S" style="fill:none;stroke:#27AAE1;opacity:1;stroke-width:0.5;" x1="263" x2="3036" y1="625.541" y2="625.541"/>
  <g id="H-reference" style="fill:#27AAE1;stroke:none;" transform="matrix(1 0 0 1 339 1126)">
   <path d="M0.976562 0L3.66211 0L12.9883-24.4629L45.752-24.4629L55.127 0L57.7637 0L30.6152-70.459L28.125-70.459ZM29.3457-67.1387L29.4434-67.1387L44.873-26.709L13.8672-26.709Z"/>
  </g>
  <line id="Baseline-M" style="fill:none;stroke:#27AAE1;opacity:1;stroke-width:0.5;" x1="263" x2="3036" y1="1126" y2="1126"/>
  <line id="Capline-M" style="fill:none;stroke:#27AAE1;opacity:1;stroke-width:0.5;" x1="263" x2="3036" y1="1055.54" y2="1055.54"/>
  <g id="H-reference" style="fill:#27AAE1;stroke:none;" transform="matrix(1 0 0 1 339 1556)">
   <path d="M0.976562 0L3.66211 0L12.9883-24.4629L45.752-24.4629L55.127 0L57.7637 0L30.6152-70.459L28.125-70.459ZM29.3457-67.1387L29.4434-67.1387L44.873-26.709L13.8672-26.709Z"/>
  </g>
  <line id="Baseline-L" style="fill:none;stroke:#27AAE1;opacity:1;stroke-width:0.5;" x1="263" x2="3036" y1="1556" y2="1556"/>
  <line id="Capline-L" style="fill:none;stroke:#27AAE1;opacity:1;stroke-width:0.5;" x1="263" x2="3036" y1="1485.54" y2="1485.54"/>
  <line id="left-margin" x1="1415.9000195312499" x2="1415.9000195312499" y1="1030.79" y2="1150.12" style="fill:none;stroke:#00AEEF;stroke-width:0.5;opacity:1.0;"/>
  <line id="right-margin" x1="1486.3599804687499" x2="1486.3599804687499" y1="1030.79" y2="1150.12" style="fill:none;stroke:#00AEEF;stroke-width:0.5;opacity:1.0;"/>
 </g>
 <g id="Symbols">
  <g id="Black-L" transform="matrix(1.0,0.0,0.0,1.0,2889.2333251953123,1475.3233447265625)">  <path stroke="none" stroke-dasharray="none" stroke-opacity="1" fill-opacity="1" stroke-linecap="butt" fill-rule="nonzero" stroke-linejoin="miter" fill="#000000" stroke-miterlimit="4" stroke-width="1px" d="M76.265,48.447C76.265,45.56,79.17,45.463,81.589,45.463L82.11,45.463C85.064,45.463,87.993,45.828,90.844,46.499C90.84,46.139,90.893,45.802,90.893,45.447C90.893,20.344,70.549,0,45.447,0C45.074,0,44.577,0.046,44.364,0.054C45.013,2.808,45.449,5.618,45.449,8.494C45.449,9.559,45.399,10.629,45.31,11.689C45.198,13.171,43.955,14.291,42.482,14.291C41.401,14.291,39.636,13.46,39.636,11.456C39.636,11.148,39.763,10.186,39.763,8.493C39.763,5.784,39.339,3.135,38.658,0.559C18.978,3.513,3.462,19.049,0.547,38.754C3.11,39.432,5.762,39.782,8.438,39.782C10.226,39.782,11.205,39.638,11.53,39.638C12.636,39.638,14.458,40.465,14.458,42.476C14.458,45.336,11.594,45.454,9.18,45.454L8.55,45.447C5.651,45.447,2.824,45.013,0.055,44.362C0.046,44.577,0,45.074,0,45.447C0,70.549,20.344,90.893,45.447,90.893C45.813,90.893,46.168,90.848,46.533,90.839C45.89,88.088,45.447,85.284,45.447,82.408C45.447,81.398,45.491,80.387,45.574,79.384C45.698,77.869,47.045,76.791,48.502,76.791C49.762,76.791,51.243,78.022,51.243,79.617C51.243,80.036,51.127,80.661,51.127,82.408C51.127,85.115,51.55,87.762,52.229,90.336C71.899,87.384,87.415,71.855,90.344,52.168C87.761,51.484,85.091,51.126,82.401,51.126C80.543,51.126,79.518,51.284,79.183,51.284C78.697,51.287,76.265,50.861,76.265,48.447ZM42.287,22.883C42.287,27.815,28.386,42.074,23.007,42.074C21.479,42.074,20.165,40.838,20.165,39.237C20.165,38.171,20.768,37.151,21.792,36.664C36.047,29.904,35.321,19.888,39.436,19.888C41.665,20.025,42.287,22.049,42.287,22.883ZM70.567,51.589C70.567,52.648,69.969,53.663,68.946,54.151C54.953,60.82,55.468,71.016,51.381,71.016C49.148,71.016,48.539,68.967,48.539,68.17C48.539,63.199,62.438,48.749,67.73,48.749C69.377,48.749,70.567,50.116,70.567,51.589ZM70.567,51.589"/>
</g>
  <g id="Heavy-L" transform="matrix(1.0,0.0,0.0,1.0,2592.5233251953123,1475.3233447265625)">  <path stroke-opacity="1" stroke-width="1px" stroke="none" stroke-linecap="butt" stroke-dasharray="none" stroke-linejoin="miter" fill-rule="nonzero" fill-opacity="1" fill="#000000" stroke-miterlimit="4" d="M76.265,48.447C76.265,45.56,79.17,45.463,81.589,45.463L82.11,45.463C85.064,45.463,87.993,45.828,90.844,46.499C90.84,46.139,90.893,45.802,90.893,45.447C90.893,20.344,70.549,0,45.447,0C45.074,0,44.577,0.046,44.364,0.054C45.013,2.808,45.449,5.618,45.449,8.494C45.449,9.559,45.399,10.629,45.31,11.689C45.198,13.171,43.955,14.291,42.482,14.291C41.401,14.291,39.636,13.46,39.636,11.456C39.636,11.148,39.763,10.186,39.763,8.493C39.763,5.784,39.339,3.135,38.658,0.559C18.978,3.513,3.462,19.049,0.547,38.754C3.11,39.432,5.762,39.782,8.438,39.782C10.226,39.782,11.205,39.638,11.53,39.638C12.636,39.638,14.458,40.465,14.458,42.476C14.458,45.336,11.594,45.454,9.18,45.454L8.55,45.447C5.651,45.447,2.824,45.013,0.055,44.362C0.046,44.577,0,45.074,0,45.447C0,70.549,20.344,90.893,45.447,90.893C45.813,90.893,46.168,90.848,46.533,90.839C45.89,88.088,45.447,85.284,45.447,82.408C45.447,81.398,45.491,80.387,45.574,79.384C45.698,77.869,47.045,76.791,48.502,76.791C49.762,76.791,51.243,78.022,51.243,79.617C51.243,80.036,51.127,80.661,51.127,82.408C51.127,85.115,51.55,87.762,52.229,90.336C71.899,87.384,87.415,71.855,90.344,52.168C87.761,51.484,85.091,51.126,82.401,51.126C80.543,51.126,79.518,51.284,79.183,51.284C78.697,51.287,76.265,50.861,76.265,48.447ZM42.287,22.883C42.287,27.815,28.386,42.074,23.007,42.074C21.479,42.074,20.165,40.838,20.165,39.237C20.165,38.171,20.768,37.151,21.792,36.664C36.047,29.904,35.321,19.888,39.436,19.888C41.665,20.025,42.287,22.049,42.287,22.883ZM70.567,51.589C70.567,52.648,69.969,53.663,68.946,54.151C54.953,60.82,55.468,71.016,51.381,71.016C49.148,71.016,48.539,68.967,48.539,68.17C48.539,63.199,62.438,48.749,67.73,48.749C69.377,48.749,70.567,50.116,70.567,51.589ZM70.567,51.589"/>
</g>
  <g id="Bold-L" transform="matrix(1.0,0.0,0.0,1.0,2295.8133251953122,1475.3233447265625)">  <path stroke="none" fill-opacity="1" fill-rule="nonzero" stroke-linecap="butt" fill="#000000" stroke-width="1px" stroke-opacity="1" stroke-dasharray="none" stroke-miterlimit="4" stroke-linejoin="miter" d="M76.265,48.447C76.265,45.56,79.17,45.463,81.589,45.463L82.11,45.463C85.064,45.463,87.993,45.828,90.844,46.499C90.84,46.139,90.893,45.802,90.893,45.447C90.893,20.344,70.549,0,45.447,0C45.074,0,44.577,0.046,44.364,0.054C45.013,2.808,45.449,5.618,45.449,8.494C45.449,9.559,45.399,10.629,45.31,11.689C45.198,13.171,43.955,14.291,42.482,14.291C41.401,14.291,39.636,13.46,39.636,11.456C39.636,11.148,39.763,10.186,39.763,8.493C39.763,5.784,39.339,3.135,38.658,0.559C18.978,3.513,3.462,19.049,0.547,38.754C3.11,39.432,5.762,39.782,8.438,39.782C10.226,39.782,11.205,39.638,11.53,39.638C12.636,39.638,14.458,40.465,14.458,42.476C14.458,45.336,11.594,45.454,9.18,45.454L8.55,45.447C5.651,45.447,2.824,45.013,0.055,44.362C0.046,44.577,0,45.074,0,45.447C0,70.549,20.344,90.893,45.447,90.893C45.813,90.893,46.168,90.848,46.533,90.839C45.89,88.088,45.447,85.284,45.447,82.408C45.447,81.398,45.491,80.387,45.574,79.384C45.698,77.869,47.045,76.791,48.502,76.791C49.762,76.791,51.243,78.022,51.243,79.617C51.243,80.036,51.127,80.661,51.127,82.408C51.127,85.115,51.55,87.762,52.229,90.336C71.899,87.384,87.415,71.855,90.344,52.168C87.761,51.484,85.091,51.126,82.401,51.126C80.543,51.126,79.518,51.284,79.183,51.284C78.697,51.287,76.265,50.861,76.265,48.447ZM42.287,22.883C42.287,27.815,28.386,42.074,23.007,42.074C21.479,42.074,20.165,40.838,20.165,39.237C20.165,38.171,20.768,37.151,21.792,36.664C36.047,29.904,35.321,19.888,39.436,19.888C41.665,20.025,42.287,22.049,42.287,22.883ZM70.567,51.589C70.567,52.648,69.969,53.663,68.946,54.151C54.953,60.82,55.468,71.016,51.381,71.016C49.148,71.016,48.539,68.967,48.539,68.17C48.539,63.199,62.438,48.749,67.73,48.749C69.377,48.749,70.567,50.116,70.567,51.589ZM70.567,51.589"/>
</g>
  <g id="Semibold-L" transform="matrix(1.0,0.0,0.0,1.0,1999.1033251953124,1475.3233447265625)">  <path stroke-miterlimit="4" stroke-width="1px" stroke-linejoin="miter" fill="#000000" stroke-dasharray="none" stroke="none" stroke-linecap="butt" stroke-opacity="1" fill-opacity="1" fill-rule="nonzero" d="M76.265,48.447C76.265,45.56,79.17,45.463,81.589,45.463L82.11,45.463C85.064,45.463,87.993,45.828,90.844,46.499C90.84,46.139,90.893,45.802,90.893,45.447C90.893,20.344,70.549,0,45.447,0C45.074,0,44.577,0.046,44.364,0.054C45.013,2.808,45.449,5.618,45.449,8.494C45.449,9.559,45.399,10.629,45.31,11.689C45.198,13.171,43.955,14.291,42.482,14.291C41.401,14.291,39.636,13.46,39.636,11.456C39.636,11.148,39.763,10.186,39.763,8.493C39.763,5.784,39.339,3.135,38.658,0.559C18.978,3.513,3.462,19.049,0.547,38.754C3.11,39.432,5.762,39.782,8.438,39.782C10.226,39.782,11.205,39.638,11.53,39.638C12.636,39.638,14.458,40.465,14.458,42.476C14.458,45.336,11.594,45.454,9.18,45.454L8.55,45.447C5.651,45.447,2.824,45.013,0.055,44.362C0.046,44.577,0,45.074,0,45.447C0,70.549,20.344,90.893,45.447,90.893C45.813,90.893,46.168,90.848,46.533,90.839C45.89,88.088,45.447,85.284,45.447,82.408C45.447,81.398,45.491,80.387,45.574,79.384C45.698,77.869,47.045,76.791,48.502,76.791C49.762,76.791,51.243,78.022,51.243,79.617C51.243,80.036,51.127,80.661,51.127,82.408C51.127,85.115,51.55,87.762,52.229,90.336C71.899,87.384,87.415,71.855,90.344,52.168C87.761,51.484,85.091,51.126,82.401,51.126C80.543,51.126,79.518,51.284,79.183,51.284C78.697,51.287,76.265,50.861,76.265,48.447ZM42.287,22.883C42.287,27.815,28.386,42.074,23.007,42.074C21.479,42.074,20.165,40.838,20.165,39.237C20.165,38.171,20.768,37.151,21.792,36.664C36.047,29.904,35.321,19.888,39.436,19.888C41.665,20.025,42.287,22.049,42.287,22.883ZM70.567,51.589C70.567,52.648,69.969,53.663,68.946,54.151C54.953,60.82,55.468,71.016,51.381,71.016C49.148,71.016,48.539,68.967,48.539,68.17C48.539,63.199,62.438,48.749,67.73,48.749C69.377,48.749,70.567,50.116,70.567,51.589ZM70.567,51.589"/>
</g>
  <g id="Medium-L" transform="matrix(1.0,0.0,0.0,1.0,1702.3933251953124,1475.3233447265625)">  <path fill-opacity="1" stroke-miterlimit="4" stroke-width="1px" stroke-linejoin="miter" stroke-dasharray="none" fill-rule="nonzero" stroke-opacity="1" fill="#000000" stroke="none" stroke-linecap="butt" d="M76.265,48.447C76.265,45.56,79.17,45.463,81.589,45.463L82.11,45.463C85.064,45.463,87.993,45.828,90.844,46.499C90.84,46.139,90.893,45.802,90.893,45.447C90.893,20.344,70.549,0,45.447,0C45.074,0,44.577,0.046,44.364,0.054C45.013,2.808,45.449,5.618,45.449,8.494C45.449,9.559,45.399,10.629,45.31,11.689C45.198,13.171,43.955,14.291,42.482,14.291C41.401,14.291,39.636,13.46,39.636,11.456C39.636,11.148,39.763,10.186,39.763,8.493C39.763,5.784,39.339,3.135,38.658,0.559C18.978,3.513,3.462,19.049,0.547,38.754C3.11,39.432,5.762,39.782,8.438,39.782C10.226,39.782,11.205,39.638,11.53,39.638C12.636,39.638,14.458,40.465,14.458,42.476C14.458,45.336,11.594,45.454,9.18,45.454L8.55,45.447C5.651,45.447,2.824,45.013,0.055,44.362C0.046,44.577,0,45.074,0,45.447C0,70.549,20.344,90.893,45.447,90.893C45.813,90.893,46.168,90.848,46.533,90.839C45.89,88.088,45.447,85.284,45.447,82.408C45.447,81.398,45.491,80.387,45.574,79.384C45.698,77.869,47.045,76.791,48.502,76.791C49.762,76.791,51.243,78.022,51.243,79.617C51.243,80.036,51.127,80.661,51.127,82.408C51.127,85.115,51.55,87.762,52.229,90.336C71.899,87.384,87.415,71.855,90.344,52.168C87.761,51.484,85.091,51.126,82.401,51.126C80.543,51.126,79.518,51.284,79.183,51.284C78.697,51.287,76.265,50.861,76.265,48.447ZM42.287,22.883C42.287,27.815,28.386,42.074,23.007,42.074C21.479,42.074,20.165,40.838,20.165,39.237C20.165,38.171,20.768,37.151,21.792,36.664C36.047,29.904,35.321,19.888,39.436,19.888C41.665,20.025,42.287,22.049,42.287,22.883ZM70.567,51.589C70.567,52.648,69.969,53.663,68.946,54.151C54.953,60.82,55.468,71.016,51.381,71.016C49.148,71.016,48.539,68.967,48.539,68.17C48.539,63.199,62.438,48.749,67.73,48.749C69.377,48.749,70.567,50.116,70.567,51.589ZM70.567,51.589"/>
</g>
  <g id="Regular-L" transform="matrix(1.0,0.0,0.0,1.0,1405.6833251953124,1475.3233447265625)">  <path fill="#000000" stroke-dasharray="none" stroke-width="1px" fill-rule="nonzero" stroke-miterlimit="4" stroke-opacity="1" stroke-linejoin="miter" fill-opacity="1" stroke="none" stroke-linecap="butt" d="M76.265,48.447C76.265,45.56,79.17,45.463,81.589,45.463L82.11,45.463C85.064,45.463,87.993,45.828,90.844,46.499C90.84,46.139,90.893,45.802,90.893,45.447C90.893,20.344,70.549,0,45.447,0C45.074,0,44.577,0.046,44.364,0.054C45.013,2.808,45.449,5.618,45.449,8.494C45.449,9.559,45.399,10.629,45.31,11.689C45.198,13.171,43.955,14.291,42.482,14.291C41.401,14.291,39.636,13.46,39.636,11.456C39.636,11.148,39.763,10.186,39.763,8.493C39.763,5.784,39.339,3.135,38.658,0.559C18.978,3.513,3.462,19.049,0.547,38.754C3.11,39.432,5.762,39.782,8.438,39.782C10.226,39.782,11.205,39.638,11.53,39.638C12.636,39.638,14.458,40.465,14.458,42.476C14.458,45.336,11.594,45.454,9.18,45.454L8.55,45.447C5.651,45.447,2.824,45.013,0.055,44.362C0.046,44.577,0,45.074,0,45.447C0,70.549,20.344,90.893,45.447,90.893C45.813,90.893,46.168,90.848,46.533,90.839C45.89,88.088,45.447,85.284,45.447,82.408C45.447,81.398,45.491,80.387,45.574,79.384C45.698,77.869,47.045,76.791,48.502,76.791C49.762,76.791,51.243,78.022,51.243,79.617C51.243,80.036,51.127,80.661,51.127,82.408C51.127,85.115,51.55,87.762,52.229,90.336C71.899,87.384,87.415,71.855,90.344,52.168C87.761,51.484,85.091,51.126,82.401,51.126C80.543,51.126,79.518,51.284,79.183,51.284C78.697,51.287,76.265,50.861,76.265,48.447ZM42.287,22.883C42.287,27.815,28.386,42.074,23.007,42.074C21.479,42.074,20.165,40.838,20.165,39.237C20.165,38.171,20.768,37.151,21.792,36.664C36.047,29.904,35.321,19.888,39.436,19.888C41.665,20.025,42.287,22.049,42.287,22.883ZM70.567,51.589C70.567,52.648,69.969,53.663,68.946,54.151C54.953,60.82,55.468,71.016,51.381,71.016C49.148,71.016,48.539,68.967,48.539,68.17C48.539,63.199,62.438,48.749,67.73,48.749C69.377,48.749,70.567,50.116,70.567,51.589ZM70.567,51.589"/>
</g>
  <g id="Light-L" transform="matrix(1.0,0.0,0.0,1.0,1108.9733251953126,1475.3233447265625)">  <path fill-rule="nonzero" stroke-linejoin="miter" stroke-width="1px" stroke="none" stroke-opacity="1" fill-opacity="1" fill="#000000" stroke-linecap="butt" stroke-dasharray="none" stroke-miterlimit="4" d="M76.265,48.447C76.265,45.56,79.17,45.463,81.589,45.463L82.11,45.463C85.064,45.463,87.993,45.828,90.844,46.499C90.84,46.139,90.893,45.802,90.893,45.447C90.893,20.344,70.549,0,45.447,0C45.074,0,44.577,0.046,44.364,0.054C45.013,2.808,45.449,5.618,45.449,8.494C45.449,9.559,45.399,10.629,45.31,11.689C45.198,13.171,43.955,14.291,42.482,14.291C41.401,14.291,39.636,13.46,39.636,11.456C39.636,11.148,39.763,10.186,39.763,8.493C39.763,5.784,39.339,3.135,38.658,0.559C18.978,3.513,3.462,19.049,0.547,38.754C3.11,39.432,5.762,39.782,8.438,39.782C10.226,39.782,11.205,39.638,11.53,39.638C12.636,39.638,14.458,40.465,14.458,42.476C14.458,45.336,11.594,45.454,9.18,45.454L8.55,45.447C5.651,45.447,2.824,45.013,0.055,44.362C0.046,44.577,0,45.074,0,45.447C0,70.549,20.344,90.893,45.447,90.893C45.813,90.893,46.168,90.848,46.533,90.839C45.89,88.088,45.447,85.284,45.447,82.408C45.447,81.398,45.491,80.387,45.574,79.384C45.698,77.869,47.045,76.791,48.502,76.791C49.762,76.791,51.243,78.022,51.243,79.617C51.243,80.036,51.127,80.661,51.127,82.408C51.127,85.115,51.55,87.762,52.229,90.336C71.899,87.384,87.415,71.855,90.344,52.168C87.761,51.484,85.091,51.126,82.401,51.126C80.543,51.126,79.518,51.284,79.183,51.284C78.697,51.287,76.265,50.861,76.265,48.447ZM42.287,22.883C42.287,27.815,28.386,42.074,23.007,42.074C21.479,42.074,20.165,40.838,20.165,39.237C20.165,38.171,20.768,37.151,21.792,36.664C36.047,29.904,35.321,19.888,39.436,19.888C41.665,20.025,42.287,22.049,42.287,22.883ZM70.567,51.589C70.567,52.648,69.969,53.663,68.946,54.151C54.953,60.82,55.468,71.016,51.381,71.016C49.148,71.016,48.539,68.967,48.539,68.17C48.539,63.199,62.438,48.749,67.73,48.749C69.377,48.749,70.567,50.116,70.567,51.589ZM70.567,51.589"/>
</g>
  <g id="Thin-L" transform="matrix(1.0,0.0,0.0,1.0,812.2633251953125,1475.3233447265625)">  <path stroke-opacity="1" stroke="none" stroke-linecap="butt" stroke-miterlimit="4" fill="#000000" fill-opacity="1" stroke-dasharray="none" stroke-linejoin="miter" stroke-width="1px" fill-rule="nonzero" d="M76.265,48.447C76.265,45.56,79.17,45.463,81.589,45.463L82.11,45.463C85.064,45.463,87.993,45.828,90.844,46.499C90.84,46.139,90.893,45.802,90.893,45.447C90.893,20.344,70.549,0,45.447,0C45.074,0,44.577,0.046,44.364,0.054C45.013,2.808,45.449,5.618,45.449,8.494C45.449,9.559,45.399,10.629,45.31,11.689C45.198,13.171,43.955,14.291,42.482,14.291C41.401,14.291,39.636,13.46,39.636,11.456C39.636,11.148,39.763,10.186,39.763,8.493C39.763,5.784,39.339,3.135,38.658,0.559C18.978,3.513,3.462,19.049,0.547,38.754C3.11,39.432,5.762,39.782,8.438,39.782C10.226,39.782,11.205,39.638,11.53,39.638C12.636,39.638,14.458,40.465,14.458,42.476C14.458,45.336,11.594,45.454,9.18,45.454L8.55,45.447C5.651,45.447,2.824,45.013,0.055,44.362C0.046,44.577,0,45.074,0,45.447C0,70.549,20.344,90.893,45.447,90.893C45.813,90.893,46.168,90.848,46.533,90.839C45.89,88.088,45.447,85.284,45.447,82.408C45.447,81.398,45.491,80.387,45.574,79.384C45.698,77.869,47.045,76.791,48.502,76.791C49.762,76.791,51.243,78.022,51.243,79.617C51.243,80.036,51.127,80.661,51.127,82.408C51.127,85.115,51.55,87.762,52.229,90.336C71.899,87.384,87.415,71.855,90.344,52.168C87.761,51.484,85.091,51.126,82.401,51.126C80.543,51.126,79.518,51.284,79.183,51.284C78.697,51.287,76.265,50.861,76.265,48.447ZM42.287,22.883C42.287,27.815,28.386,42.074,23.007,42.074C21.479,42.074,20.165,40.838,20.165,39.237C20.165,38.171,20.768,37.151,21.792,36.664C36.047,29.904,35.321,19.888,39.436,19.888C41.665,20.025,42.287,22.049,42.287,22.883ZM70.567,51.589C70.567,52.648,69.969,53.663,68.946,54.151C54.953,60.82,55.468,71.016,51.381,71.016C49.148,71.016,48.539,68.967,48.539,68.17C48.539,63.199,62.438,48.749,67.73,48.749C69.377,48.749,70.567,50.116,70.567,51.589ZM70.567,51.589"/>
</g>
  <g id="Ultralight-L" transform="matrix(1.0,0.0,0.0,1.0,515.5533251953125,1475.3233447265625)">  <path stroke-dasharray="none" fill-opacity="1" stroke-linecap="butt" stroke="none" stroke-miterlimit="4" fill-rule="nonzero" stroke-width="1px" fill="#000000" stroke-linejoin="miter" stroke-opacity="1" d="M76.265,48.447C76.265,45.56,79.17,45.463,81.589,45.463L82.11,45.463C85.064,45.463,87.993,45.828,90.844,46.499C90.84,46.139,90.893,45.802,90.893,45.447C90.893,20.344,70.549,0,45.447,0C45.074,0,44.577,0.046,44.364,0.054C45.013,2.808,45.449,5.618,45.449,8.494C45.449,9.559,45.399,10.629,45.31,11.689C45.198,13.171,43.955,14.291,42.482,14.291C41.401,14.291,39.636,13.46,39.636,11.456C39.636,11.148,39.763,10.186,39.763,8.493C39.763,5.784,39.339,3.135,38.658,0.559C18.978,3.513,3.462,19.049,0.547,38.754C3.11,39.432,5.762,39.782,8.438,39.782C10.226,39.782,11.205,39.638,11.53,39.638C12.636,39.638,14.458,40.465,14.458,42.476C14.458,45.336,11.594,45.454,9.18,45.454L8.55,45.447C5.651,45.447,2.824,45.013,0.055,44.362C0.046,44.577,0,45.074,0,45.447C0,70.549,20.344,90.893,45.447,90.893C45.813,90.893,46.168,90.848,46.533,90.839C45.89,88.088,45.447,85.284,45.447,82.408C45.447,81.398,45.491,80.387,45.574,79.384C45.698,77.869,47.045,76.791,48.502,76.791C49.762,76.791,51.243,78.022,51.243,79.617C51.243,80.036,51.127,80.661,51.127,82.408C51.127,85.115,51.55,87.762,52.229,90.336C71.899,87.384,87.415,71.855,90.344,52.168C87.761,51.484,85.091,51.126,82.401,51.126C80.543,51.126,79.518,51.284,79.183,51.284C78.697,51.287,76.265,50.861,76.265,48.447ZM42.287,22.883C42.287,27.815,28.386,42.074,23.007,42.074C21.479,42.074,20.165,40.838,20.165,39.237C20.165,38.171,20.768,37.151,21.792,36.664C36.047,29.904,35.321,19.888,39.436,19.888C41.665,20.025,42.287,22.049,42.287,22.883ZM70.567,51.589C70.567,52.648,69.969,53.663,68.946,54.151C54.953,60.82,55.468,71.016,51.381,71.016C49.148,71.016,48.539,68.967,48.539,68.17C48.539,63.199,62.438,48.749,67.73,48.749C69.377,48.749,70.567,50.116,70.567,51.589ZM70.567,51.589"/>
</g>
  <g id="Black-M" transform="matrix(1.0,0.0,0.0,1.0,2899.45001953125,1055.5400390625)">  <path stroke="none" stroke-dasharray="none" stroke-opacity="1" fill-opacity="1" stroke-linecap="butt" fill-rule="nonzero" stroke-linejoin="miter" fill="#000000" stroke-miterlimit="4" stroke-width="1px" d="M59.12,37.556C59.12,35.318,61.372,35.242,63.247,35.242L63.651,35.243C65.941,35.243,68.211,35.526,70.422,36.046C70.419,35.767,70.46,35.505,70.46,35.23C70.46,15.771,54.689,0,35.23,0C34.941,0,34.556,0.035,34.391,0.042C34.894,2.176,35.231,4.355,35.231,6.584C35.231,7.41,35.193,8.24,35.124,9.061C35.037,10.21,34.074,11.078,32.932,11.078C32.094,11.078,30.726,10.434,30.726,8.88C30.726,8.642,30.824,7.896,30.824,6.584C30.824,4.484,30.495,2.43,29.967,0.433C14.711,2.723,2.684,14.766,0.424,30.042C2.411,30.567,4.467,30.839,6.541,30.839C7.927,30.839,8.686,30.727,8.938,30.727C9.795,30.727,11.208,31.368,11.208,32.928C11.208,35.145,8.988,35.235,7.116,35.235L6.628,35.23C4.38,35.23,2.189,34.894,0.043,34.389C0.035,34.556,0,34.941,0,35.23C0,54.689,15.771,70.46,35.23,70.46C35.514,70.46,35.789,70.424,36.072,70.417C35.574,68.286,35.23,66.111,35.23,63.882C35.23,63.099,35.264,62.316,35.329,61.538C35.425,60.363,36.469,59.528,37.598,59.528C38.575,59.528,39.723,60.482,39.723,61.719C39.723,62.043,39.633,62.528,39.633,63.882C39.633,65.981,39.961,68.032,40.488,70.028C55.736,67.739,67.763,55.702,70.034,40.44C68.032,39.91,65.962,39.632,63.877,39.632C62.436,39.632,61.642,39.755,61.382,39.755C61.006,39.758,59.12,39.427,59.12,37.556ZM32.78,17.739C32.78,21.562,22.005,32.615,17.835,32.615C16.65,32.615,15.632,31.657,15.632,30.416C15.632,29.59,16.099,28.799,16.893,28.422C27.944,23.182,27.381,15.417,30.571,15.417C32.299,15.523,32.78,17.092,32.78,17.739ZM54.703,39.992C54.703,40.812,54.24,41.599,53.446,41.977C42.599,47.148,42.998,55.051,39.83,55.051C38.099,55.051,37.627,53.463,37.627,52.845C37.627,48.992,48.401,37.79,52.504,37.79C53.781,37.79,54.703,38.849,54.703,39.992ZM54.703,39.992"/>
</g>
  <g id="Heavy-M" transform="matrix(1.0,0.0,0.0,1.0,2602.74001953125,1055.5400390625)">  <path stroke-opacity="1" stroke-width="1px" stroke="none" stroke-linecap="butt" stroke-dasharray="none" stroke-linejoin="miter" fill-rule="nonzero" fill-opacity="1" fill="#000000" stroke-miterlimit="4" d="M59.12,37.556C59.12,35.318,61.372,35.242,63.247,35.242L63.651,35.243C65.941,35.243,68.211,35.526,70.422,36.046C70.419,35.767,70.46,35.505,70.46,35.23C70.46,15.771,54.689,0,35.23,0C34.941,0,34.556,0.035,34.391,0.042C34.894,2.176,35.231,4.355,35.231,6.584C35.231,7.41,35.193,8.24,35.124,9.061C35.037,10.21,34.074,11.078,32.932,11.078C32.094,11.078,30.726,10.434,30.726,8.88C30.726,8.642,30.824,7.896,30.824,6.584C30.824,4.484,30.495,2.43,29.967,0.433C14.711,2.723,2.684,14.766,0.424,30.042C2.411,30.567,4.467,30.839,6.541,30.839C7.927,30.839,8.686,30.727,8.938,30.727C9.795,30.727,11.208,31.368,11.208,32.928C11.208,35.145,8.988,35.235,7.116,35.235L6.628,35.23C4.38,35.23,2.189,34.894,0.043,34.389C0.035,34.556,0,34.941,0,35.23C0,54.689,15.771,70.46,35.23,70.46C35.514,70.46,35.789,70.424,36.072,70.417C35.574,68.286,35.23,66.111,35.23,63.882C35.23,63.099,35.264,62.316,35.329,61.538C35.425,60.363,36.469,59.528,37.598,59.528C38.575,59.528,39.723,60.482,39.723,61.719C39.723,62.043,39.633,62.528,39.633,63.882C39.633,65.981,39.961,68.032,40.488,70.028C55.736,67.739,67.763,55.702,70.034,40.44C68.032,39.91,65.962,39.632,63.877,39.632C62.436,39.632,61.642,39.755,61.382,39.755C61.006,39.758,59.12,39.427,59.12,37.556ZM32.78,17.739C32.78,21.562,22.005,32.615,17.835,32.615C16.65,32.615,15.632,31.657,15.632,30.416C15.632,29.59,16.099,28.799,16.893,28.422C27.944,23.182,27.381,15.417,30.571,15.417C32.299,15.523,32.78,17.092,32.78,17.739ZM54.703,39.992C54.703,40.812,54.24,41.599,53.446,41.977C42.599,47.148,42.998,55.051,39.83,55.051C38.099,55.051,37.627,53.463,37.627,52.845C37.627,48.992,48.401,37.79,52.504,37.79C53.781,37.79,54.703,38.849,54.703,39.992ZM54.703,39.992"/>
</g>
  <g id="Bold-M" transform="matrix(1.0,0.0,0.0,1.0,2306.0300195312498,1055.5400390625)">  <path stroke="none" fill-opacity="1" fill-rule="nonzero" stroke-linecap="butt" fill="#000000" stroke-width="1px" stroke-opacity="1" stroke-dasharray="none" stroke-miterlimit="4" stroke-linejoin="miter" d="M59.12,37.556C59.12,35.318,61.372,35.242,63.247,35.242L63.651,35.243C65.941,35.243,68.211,35.526,70.422,36.046C70.419,35.767,70.46,35.505,70.46,35.23C70.46,15.771,54.689,0,35.23,0C34.941,0,34.556,0.035,34.391,0.042C34.894,2.176,35.231,4.355,35.231,6.584C35.231,7.41,35.193,8.24,35.124,9.061C35.037,10.21,34.074,11.078,32.932,11.078C32.094,11.078,30.726,10.434,30.726,8.88C30.726,8.642,30.824,7.896,30.824,6.584C30.824,4.484,30.495,2.43,29.967,0.433C14.711,2.723,2.684,14.766,0.424,30.042C2.411,30.567,4.467,30.839,6.541,30.839C7.927,30.839,8.686,30.727,8.938,30.727C9.795,30.727,11.208,31.368,11.208,32.928C11.208,35.145,8.988,35.235,7.116,35.235L6.628,35.23C4.38,35.23,2.189,34.894,0.043,34.389C0.035,34.556,0,34.941,0,35.23C0,54.689,15.771,70.46,35.23,70.46C35.514,70.46,35.789,70.424,36.072,70.417C35.574,68.286,35.23,66.111,35.23,63.882C35.23,63.099,35.264,62.316,35.329,61.538C35.425,60.363,36.469,59.528,37.598,59.528C38.575,59.528,39.723,60.482,39.723,61.719C39.723,62.043,39.633,62.528,39.633,63.882C39.633,65.981,39.961,68.032,40.488,70.028C55.736,67.739,67.763,55.702,70.034,40.44C68.032,39.91,65.962,39.632,63.877,39.632C62.436,39.632,61.642,39.755,61.382,39.755C61.006,39.758,59.12,39.427,59.12,37.556ZM32.78,17.739C32.78,21.562,22.005,32.615,17.835,32.615C16.65,32.615,15.632,31.657,15.632,30.416C15.632,29.59,16.099,28.799,16.893,28.422C27.944,23.182,27.381,15.417,30.571,15.417C32.299,15.523,32.78,17.092,32.78,17.739ZM54.703,39.992C54.703,40.812,54.24,41.599,53.446,41.977C42.599,47.148,42.998,55.051,39.83,55.051C38.099,55.051,37.627,53.463,37.627,52.845C37.627,48.992,48.401,37.79,52.504,37.79C53.781,37.79,54.703,38.849,54.703,39.992ZM54.703,39.992"/>
</g>
  <g id="Semibold-M" transform="matrix(1.0,0.0,0.0,1.0,2009.32001953125,1055.5400390625)">  <path stroke-miterlimit="4" stroke-width="1px" stroke-linejoin="miter" fill="#000000" stroke-dasharray="none" stroke="none" stroke-linecap="butt" stroke-opacity="1" fill-opacity="1" fill-rule="nonzero" d="M59.12,37.556C59.12,35.318,61.372,35.242,63.247,35.242L63.651,35.243C65.941,35.243,68.211,35.526,70.422,36.046C70.419,35.767,70.46,35.505,70.46,35.23C70.46,15.771,54.689,0,35.23,0C34.941,0,34.556,0.035,34.391,0.042C34.894,2.176,35.231,4.355,35.231,6.584C35.231,7.41,35.193,8.24,35.124,9.061C35.037,10.21,34.074,11.078,32.932,11.078C32.094,11.078,30.726,10.434,30.726,8.88C30.726,8.642,30.824,7.896,30.824,6.584C30.824,4.484,30.495,2.43,29.967,0.433C14.711,2.723,2.684,14.766,0.424,30.042C2.411,30.567,4.467,30.839,6.541,30.839C7.927,30.839,8.686,30.727,8.938,30.727C9.795,30.727,11.208,31.368,11.208,32.928C11.208,35.145,8.988,35.235,7.116,35.235L6.628,35.23C4.38,35.23,2.189,34.894,0.043,34.389C0.035,34.556,0,34.941,0,35.23C0,54.689,15.771,70.46,35.23,70.46C35.514,70.46,35.789,70.424,36.072,70.417C35.574,68.286,35.23,66.111,35.23,63.882C35.23,63.099,35.264,62.316,35.329,61.538C35.425,60.363,36.469,59.528,37.598,59.528C38.575,59.528,39.723,60.482,39.723,61.719C39.723,62.043,39.633,62.528,39.633,63.882C39.633,65.981,39.961,68.032,40.488,70.028C55.736,67.739,67.763,55.702,70.034,40.44C68.032,39.91,65.962,39.632,63.877,39.632C62.436,39.632,61.642,39.755,61.382,39.755C61.006,39.758,59.12,39.427,59.12,37.556ZM32.78,17.739C32.78,21.562,22.005,32.615,17.835,32.615C16.65,32.615,15.632,31.657,15.632,30.416C15.632,29.59,16.099,28.799,16.893,28.422C27.944,23.182,27.381,15.417,30.571,15.417C32.299,15.523,32.78,17.092,32.78,17.739ZM54.703,39.992C54.703,40.812,54.24,41.599,53.446,41.977C42.599,47.148,42.998,55.051,39.83,55.051C38.099,55.051,37.627,53.463,37.627,52.845C37.627,48.992,48.401,37.79,52.504,37.79C53.781,37.79,54.703,38.849,54.703,39.992ZM54.703,39.992"/>
</g>
  <g id="Medium-M" transform="matrix(1.0,0.0,0.0,1.0,1712.61001953125,1055.5400390625)">  <path fill-opacity="1" stroke-miterlimit="4" stroke-width="1px" stroke-linejoin="miter" stroke-dasharray="none" fill-rule="nonzero" stroke-opacity="1" fill="#000000" stroke="none" stroke-linecap="butt" d="M59.12,37.556C59.12,35.318,61.372,35.242,63.247,35.242L63.651,35.243C65.941,35.243,68.211,35.526,70.422,36.046C70.419,35.767,70.46,35.505,70.46,35.23C70.46,15.771,54.689,0,35.23,0C34.941,0,34.556,0.035,34.391,0.042C34.894,2.176,35.231,4.355,35.231,6.584C35.231,7.41,35.193,8.24,35.124,9.061C35.037,10.21,34.074,11.078,32.932,11.078C32.094,11.078,30.726,10.434,30.726,8.88C30.726,8.642,30.824,7.896,30.824,6.584C30.824,4.484,30.495,2.43,29.967,0.433C14.711,2.723,2.684,14.766,0.424,30.042C2.411,30.567,4.467,30.839,6.541,30.839C7.927,30.839,8.686,30.727,8.938,30.727C9.795,30.727,11.208,31.368,11.208,32.928C11.208,35.145,8.988,35.235,7.116,35.235L6.628,35.23C4.38,35.23,2.189,34.894,0.043,34.389C0.035,34.556,0,34.941,0,35.23C0,54.689,15.771,70.46,35.23,70.46C35.514,70.46,35.789,70.424,36.072,70.417C35.574,68.286,35.23,66.111,35.23,63.882C35.23,63.099,35.264,62.316,35.329,61.538C35.425,60.363,36.469,59.528,37.598,59.528C38.575,59.528,39.723,60.482,39.723,61.719C39.723,62.043,39.633,62.528,39.633,63.882C39.633,65.981,39.961,68.032,40.488,70.028C55.736,67.739,67.763,55.702,70.034,40.44C68.032,39.91,65.962,39.632,63.877,39.632C62.436,39.632,61.642,39.755,61.382,39.755C61.006,39.758,59.12,39.427,59.12,37.556ZM32.78,17.739C32.78,21.562,22.005,32.615,17.835,32.615C16.65,32.615,15.632,31.657,15.632,30.416C15.632,29.59,16.099,28.799,16.893,28.422C27.944,23.182,27.381,15.417,30.571,15.417C32.299,15.523,32.78,17.092,32.78,17.739ZM54.703,39.992C54.703,40.812,54.24,41.599,53.446,41.977C42.599,47.148,42.998,55.051,39.83,55.051C38.099,55.051,37.627,53.463,37.627,52.845C37.627,48.992,48.401,37.79,52.504,37.79C53.781,37.79,54.703,38.849,54.703,39.992ZM54.703,39.992"/>
</g>
  <g id="Regular-M" transform="matrix(1.0,0.0,0.0,1.0,1415.9000195312499,1055.5400390625)">  <path fill="#000000" stroke-dasharray="none" stroke-width="1px" fill-rule="nonzero" stroke-miterlimit="4" stroke-opacity="1" stroke-linejoin="miter" fill-opacity="1" stroke="none" stroke-linecap="butt" d="M59.12,37.556C59.12,35.318,61.372,35.242,63.247,35.242L63.651,35.243C65.941,35.243,68.211,35.526,70.422,36.046C70.419,35.767,70.46,35.505,70.46,35.23C70.46,15.771,54.689,0,35.23,0C34.941,0,34.556,0.035,34.391,0.042C34.894,2.176,35.231,4.355,35.231,6.584C35.231,7.41,35.193,8.24,35.124,9.061C35.037,10.21,34.074,11.078,32.932,11.078C32.094,11.078,30.726,10.434,30.726,8.88C30.726,8.642,30.824,7.896,30.824,6.584C30.824,4.484,30.495,2.43,29.967,0.433C14.711,2.723,2.684,14.766,0.424,30.042C2.411,30.567,4.467,30.839,6.541,30.839C7.927,30.839,8.686,30.727,8.938,30.727C9.795,30.727,11.208,31.368,11.208,32.928C11.208,35.145,8.988,35.235,7.116,35.235L6.628,35.23C4.38,35.23,2.189,34.894,0.043,34.389C0.035,34.556,0,34.941,0,35.23C0,54.689,15.771,70.46,35.23,70.46C35.514,70.46,35.789,70.424,36.072,70.417C35.574,68.286,35.23,66.111,35.23,63.882C35.23,63.099,35.264,62.316,35.329,61.538C35.425,60.363,36.469,59.528,37.598,59.528C38.575,59.528,39.723,60.482,39.723,61.719C39.723,62.043,39.633,62.528,39.633,63.882C39.633,65.981,39.961,68.032,40.488,70.028C55.736,67.739,67.763,55.702,70.034,40.44C68.032,39.91,65.962,39.632,63.877,39.632C62.436,39.632,61.642,39.755,61.382,39.755C61.006,39.758,59.12,39.427,59.12,37.556ZM32.78,17.739C32.78,21.562,22.005,32.615,17.835,32.615C16.65,32.615,15.632,31.657,15.632,30.416C15.632,29.59,16.099,28.799,16.893,28.422C27.944,23.182,27.381,15.417,30.571,15.417C32.299,15.523,32.78,17.092,32.78,17.739ZM54.703,39.992C54.703,40.812,54.24,41.599,53.446,41.977C42.599,47.148,42.998,55.051,39.83,55.051C38.099,55.051,37.627,53.463,37.627,52.845C37.627,48.992,48.401,37.79,52.504,37.79C53.781,37.79,54.703,38.849,54.703,39.992ZM54.703,39.992"/>
</g>
  <g id="Light-M" transform="matrix(1.0,0.0,0.0,1.0,1119.19001953125,1055.5400390625)">  <path fill-rule="nonzero" stroke-linejoin="miter" stroke-width="1px" stroke="none" stroke-opacity="1" fill-opacity="1" fill="#000000" stroke-linecap="butt" stroke-dasharray="none" stroke-miterlimit="4" d="M59.12,37.556C59.12,35.318,61.372,35.242,63.247,35.242L63.651,35.243C65.941,35.243,68.211,35.526,70.422,36.046C70.419,35.767,70.46,35.505,70.46,35.23C70.46,15.771,54.689,0,35.23,0C34.941,0,34.556,0.035,34.391,0.042C34.894,2.176,35.231,4.355,35.231,6.584C35.231,7.41,35.193,8.24,35.124,9.061C35.037,10.21,34.074,11.078,32.932,11.078C32.094,11.078,30.726,10.434,30.726,8.88C30.726,8.642,30.824,7.896,30.824,6.584C30.824,4.484,30.495,2.43,29.967,0.433C14.711,2.723,2.684,14.766,0.424,30.042C2.411,30.567,4.467,30.839,6.541,30.839C7.927,30.839,8.686,30.727,8.938,30.727C9.795,30.727,11.208,31.368,11.208,32.928C11.208,35.145,8.988,35.235,7.116,35.235L6.628,35.23C4.38,35.23,2.189,34.894,0.043,34.389C0.035,34.556,0,34.941,0,35.23C0,54.689,15.771,70.46,35.23,70.46C35.514,70.46,35.789,70.424,36.072,70.417C35.574,68.286,35.23,66.111,35.23,63.882C35.23,63.099,35.264,62.316,35.329,61.538C35.425,60.363,36.469,59.528,37.598,59.528C38.575,59.528,39.723,60.482,39.723,61.719C39.723,62.043,39.633,62.528,39.633,63.882C39.633,65.981,39.961,68.032,40.488,70.028C55.736,67.739,67.763,55.702,70.034,40.44C68.032,39.91,65.962,39.632,63.877,39.632C62.436,39.632,61.642,39.755,61.382,39.755C61.006,39.758,59.12,39.427,59.12,37.556ZM32.78,17.739C32.78,21.562,22.005,32.615,17.835,32.615C16.65,32.615,15.632,31.657,15.632,30.416C15.632,29.59,16.099,28.799,16.893,28.422C27.944,23.182,27.381,15.417,30.571,15.417C32.299,15.523,32.78,17.092,32.78,17.739ZM54.703,39.992C54.703,40.812,54.24,41.599,53.446,41.977C42.599,47.148,42.998,55.051,39.83,55.051C38.099,55.051,37.627,53.463,37.627,52.845C37.627,48.992,48.401,37.79,52.504,37.79C53.781,37.79,54.703,38.849,54.703,39.992ZM54.703,39.992"/>
</g>
  <g id="Thin-M" transform="matrix(1.0,0.0,0.0,1.0,822.48001953125,1055.5400390625)">  <path stroke-opacity="1" stroke="none" stroke-linecap="butt" stroke-miterlimit="4" fill="#000000" fill-opacity="1" stroke-dasharray="none" stroke-linejoin="miter" stroke-width="1px" fill-rule="nonzero" d="M59.12,37.556C59.12,35.318,61.372,35.242,63.247,35.242L63.651,35.243C65.941,35.243,68.211,35.526,70.422,36.046C70.419,35.767,70.46,35.505,70.46,35.23C70.46,15.771,54.689,0,35.23,0C34.941,0,34.556,0.035,34.391,0.042C34.894,2.176,35.231,4.355,35.231,6.584C35.231,7.41,35.193,8.24,35.124,9.061C35.037,10.21,34.074,11.078,32.932,11.078C32.094,11.078,30.726,10.434,30.726,8.88C30.726,8.642,30.824,7.896,30.824,6.584C30.824,4.484,30.495,2.43,29.967,0.433C14.711,2.723,2.684,14.766,0.424,30.042C2.411,30.567,4.467,30.839,6.541,30.839C7.927,30.839,8.686,30.727,8.938,30.727C9.795,30.727,11.208,31.368,11.208,32.928C11.208,35.145,8.988,35.235,7.116,35.235L6.628,35.23C4.38,35.23,2.189,34.894,0.043,34.389C0.035,34.556,0,34.941,0,35.23C0,54.689,15.771,70.46,35.23,70.46C35.514,70.46,35.789,70.424,36.072,70.417C35.574,68.286,35.23,66.111,35.23,63.882C35.23,63.099,35.264,62.316,35.329,61.538C35.425,60.363,36.469,59.528,37.598,59.528C38.575,59.528,39.723,60.482,39.723,61.719C39.723,62.043,39.633,62.528,39.633,63.882C39.633,65.981,39.961,68.032,40.488,70.028C55.736,67.739,67.763,55.702,70.034,40.44C68.032,39.91,65.962,39.632,63.877,39.632C62.436,39.632,61.642,39.755,61.382,39.755C61.006,39.758,59.12,39.427,59.12,37.556ZM32.78,17.739C32.78,21.562,22.005,32.615,17.835,32.615C16.65,32.615,15.632,31.657,15.632,30.416C15.632,29.59,16.099,28.799,16.893,28.422C27.944,23.182,27.381,15.417,30.571,15.417C32.299,15.523,32.78,17.092,32.78,17.739ZM54.703,39.992C54.703,40.812,54.24,41.599,53.446,41.977C42.599,47.148,42.998,55.051,39.83,55.051C38.099,55.051,37.627,53.463,37.627,52.845C37.627,48.992,48.401,37.79,52.504,37.79C53.781,37.79,54.703,38.849,54.703,39.992ZM54.703,39.992"/>
</g>
  <g id="Ultralight-M" transform="matrix(1.0,0.0,0.0,1.0,525.77001953125,1055.5400390625)">  <path stroke-dasharray="none" fill-opacity="1" stroke-linecap="butt" stroke="none" stroke-miterlimit="4" fill-rule="nonzero" stroke-width="1px" fill="#000000" stroke-linejoin="miter" stroke-opacity="1" d="M59.12,37.556C59.12,35.318,61.372,35.242,63.247,35.242L63.651,35.243C65.941,35.243,68.211,35.526,70.422,36.046C70.419,35.767,70.46,35.505,70.46,35.23C70.46,15.771,54.689,0,35.23,0C34.941,0,34.556,0.035,34.391,0.042C34.894,2.176,35.231,4.355,35.231,6.584C35.231,7.41,35.193,8.24,35.124,9.061C35.037,10.21,34.074,11.078,32.932,11.078C32.094,11.078,30.726,10.434,30.726,8.88C30.726,8.642,30.824,7.896,30.824,6.584C30.824,4.484,30.495,2.43,29.967,0.433C14.711,2.723,2.684,14.766,0.424,30.042C2.411,30.567,4.467,30.839,6.541,30.839C7.927,30.839,8.686,30.727,8.938,30.727C9.795,30.727,11.208,31.368,11.208,32.928C11.208,35.145,8.988,35.235,7.116,35.235L6.628,35.23C4.38,35.23,2.189,34.894,0.043,34.389C0.035,34.556,0,34.941,0,35.23C0,54.689,15.771,70.46,35.23,70.46C35.514,70.46,35.789,70.424,36.072,70.417C35.574,68.286,35.23,66.111,35.23,63.882C35.23,63.099,35.264,62.316,35.329,61.538C35.425,60.363,36.469,59.528,37.598,59.528C38.575,59.528,39.723,60.482,39.723,61.719C39.723,62.043,39.633,62.528,39.633,63.882C39.633,65.981,39.961,68.032,40.488,70.028C55.736,67.739,67.763,55.702,70.034,40.44C68.032,39.91,65.962,39.632,63.877,39.632C62.436,39.632,61.642,39.755,61.382,39.755C61.006,39.758,59.12,39.427,59.12,37.556ZM32.78,17.739C32.78,21.562,22.005,32.615,17.835,32.615C16.65,32.615,15.632,31.657,15.632,30.416C15.632,29.59,16.099,28.799,16.893,28.422C27.944,23.182,27.381,15.417,30.571,15.417C32.299,15.523,32.78,17.092,32.78,17.739ZM54.703,39.992C54.703,40.812,54.24,41.599,53.446,41.977C42.599,47.148,42.998,55.051,39.83,55.051C38.099,55.051,37.627,53.463,37.627,52.845C37.627,48.992,48.401,37.79,52.504,37.79C53.781,37.79,54.703,38.849,54.703,39.992ZM54.703,39.992"/>
</g>
  <g id="Black-S" transform="matrix(1.0,0.0,0.0,1.0,2907.0949252929686,633.1849448242187)">  <path stroke="none" stroke-dasharray="none" stroke-opacity="1" fill-opacity="1" stroke-linecap="butt" fill-rule="nonzero" stroke-linejoin="miter" fill="#000000" stroke-miterlimit="4" stroke-width="1px" d="M46.291,29.406C46.291,27.654,48.054,27.595,49.523,27.595L49.839,27.595C51.632,27.595,53.41,27.817,55.14,28.224C55.138,28.005,55.17,27.801,55.17,27.585C55.17,12.349,42.822,0,27.585,0C27.359,0,27.057,0.028,26.928,0.033C27.322,1.704,27.586,3.41,27.586,5.155C27.586,5.802,27.556,6.452,27.502,7.095C27.434,7.994,26.68,8.674,25.786,8.674C25.129,8.674,24.058,8.17,24.058,6.953C24.058,6.767,24.135,6.183,24.135,5.155C24.135,3.511,23.878,1.903,23.465,0.339C11.519,2.132,2.101,11.562,0.332,23.523C1.888,23.934,3.498,24.147,5.122,24.147C6.207,24.147,6.801,24.059,6.999,24.059C7.67,24.059,8.776,24.561,8.776,25.782C8.776,27.518,7.037,27.589,5.572,27.589L5.189,27.585C3.43,27.585,1.714,27.322,0.033,26.927C0.028,27.057,0,27.359,0,27.585C0,42.822,12.349,55.17,27.585,55.17C27.808,55.17,28.023,55.142,28.244,55.137C27.854,53.468,27.585,51.765,27.585,50.02C27.585,49.407,27.612,48.793,27.663,48.184C27.738,47.264,28.555,46.61,29.439,46.61C30.204,46.61,31.103,47.358,31.103,48.326C31.103,48.58,31.033,48.959,31.033,50.02C31.033,51.663,31.29,53.269,31.702,54.832C43.641,53.04,53.059,43.615,54.837,31.665C53.269,31.25,51.648,31.032,50.016,31.032C48.888,31.032,48.266,31.128,48.062,31.128C47.767,31.13,46.291,30.872,46.291,29.406ZM25.667,13.89C25.667,16.883,17.23,25.538,13.965,25.538C13.037,25.538,12.24,24.787,12.24,23.816C12.24,23.169,12.606,22.55,13.227,22.254C21.88,18.151,21.439,12.072,23.937,12.072C25.29,12.155,25.667,13.383,25.667,13.89ZM42.832,31.313C42.832,31.956,42.47,32.572,41.848,32.868C33.355,36.917,33.668,43.105,31.187,43.105C29.832,43.105,29.462,41.861,29.462,41.378C29.462,38.36,37.898,29.589,41.11,29.589C42.11,29.589,42.832,30.419,42.832,31.313ZM42.832,31.313"/>
</g>
  <g id="Heavy-S" transform="matrix(1.0,0.0,0.0,1.0,2610.3849252929685,633.1849448242187)">  <path stroke-opacity="1" stroke-width="1px" stroke="none" stroke-linecap="butt" stroke-dasharray="none" stroke-linejoin="miter" fill-rule="nonzero" fill-opacity="1" fill="#000000" stroke-miterlimit="4" d="M46.291,29.406C46.291,27.654,48.054,27.595,49.523,27.595L49.839,27.595C51.632,27.595,53.41,27.817,55.14,28.224C55.138,28.005,55.17,27.801,55.17,27.585C55.17,12.349,42.822,0,27.585,0C27.359,0,27.057,0.028,26.928,0.033C27.322,1.704,27.586,3.41,27.586,5.155C27.586,5.802,27.556,6.452,27.502,7.095C27.434,7.994,26.68,8.674,25.786,8.674C25.129,8.674,24.058,8.17,24.058,6.953C24.058,6.767,24.135,6.183,24.135,5.155C24.135,3.511,23.878,1.903,23.465,0.339C11.519,2.132,2.101,11.562,0.332,23.523C1.888,23.934,3.498,24.147,5.122,24.147C6.207,24.147,6.801,24.059,6.999,24.059C7.67,24.059,8.776,24.561,8.776,25.782C8.776,27.518,7.037,27.589,5.572,27.589L5.189,27.585C3.43,27.585,1.714,27.322,0.033,26.927C0.028,27.057,0,27.359,0,27.585C0,42.822,12.349,55.17,27.585,55.17C27.808,55.17,28.023,55.142,28.244,55.137C27.854,53.468,27.585,51.765,27.585,50.02C27.585,49.407,27.612,48.793,27.663,48.184C27.738,47.264,28.555,46.61,29.439,46.61C30.204,46.61,31.103,47.358,31.103,48.326C31.103,48.58,31.033,48.959,31.033,50.02C31.033,51.663,31.29,53.269,31.702,54.832C43.641,53.04,53.059,43.615,54.837,31.665C53.269,31.25,51.648,31.032,50.016,31.032C48.888,31.032,48.266,31.128,48.062,31.128C47.767,31.13,46.291,30.872,46.291,29.406ZM25.667,13.89C25.667,16.883,17.23,25.538,13.965,25.538C13.037,25.538,12.24,24.787,12.24,23.816C12.24,23.169,12.606,22.55,13.227,22.254C21.88,18.151,21.439,12.072,23.937,12.072C25.29,12.155,25.667,13.383,25.667,13.89ZM42.832,31.313C42.832,31.956,42.47,32.572,41.848,32.868C33.355,36.917,33.668,43.105,31.187,43.105C29.832,43.105,29.462,41.861,29.462,41.378C29.462,38.36,37.898,29.589,41.11,29.589C42.11,29.589,42.832,30.419,42.832,31.313ZM42.832,31.313"/>
</g>
  <g id="Bold-S" transform="matrix(1.0,0.0,0.0,1.0,2313.6749252929685,633.1849448242187)">  <path stroke="none" fill-opacity="1" fill-rule="nonzero" stroke-linecap="butt" fill="#000000" stroke-width="1px" stroke-opacity="1" stroke-dasharray="none" stroke-miterlimit="4" stroke-linejoin="miter" d="M46.291,29.406C46.291,27.654,48.054,27.595,49.523,27.595L49.839,27.595C51.632,27.595,53.41,27.817,55.14,28.224C55.138,28.005,55.17,27.801,55.17,27.585C55.17,12.349,42.822,0,27.585,0C27.359,0,27.057,0.028,26.928,0.033C27.322,1.704,27.586,3.41,27.586,5.155C27.586,5.802,27.556,6.452,27.502,7.095C27.434,7.994,26.68,8.674,25.786,8.674C25.129,8.674,24.058,8.17,24.058,6.953C24.058,6.767,24.135,6.183,24.135,5.155C24.135,3.511,23.878,1.903,23.465,0.339C11.519,2.132,2.101,11.562,0.332,23.523C1.888,23.934,3.498,24.147,5.122,24.147C6.207,24.147,6.801,24.059,6.999,24.059C7.67,24.059,8.776,24.561,8.776,25.782C8.776,27.518,7.037,27.589,5.572,27.589L5.189,27.585C3.43,27.585,1.714,27.322,0.033,26.927C0.028,27.057,0,27.359,0,27.585C0,42.822,12.349,55.17,27.585,55.17C27.808,55.17,28.023,55.142,28.244,55.137C27.854,53.468,27.585,51.765,27.585,50.02C27.585,49.407,27.612,48.793,27.663,48.184C27.738,47.264,28.555,46.61,29.439,46.61C30.204,46.61,31.103,47.358,31.103,48.326C31.103,48.58,31.033,48.959,31.033,50.02C31.033,51.663,31.29,53.269,31.702,54.832C43.641,53.04,53.059,43.615,54.837,31.665C53.269,31.25,51.648,31.032,50.016,31.032C48.888,31.032,48.266,31.128,48.062,31.128C47.767,31.13,46.291,30.872,46.291,29.406ZM25.667,13.89C25.667,16.883,17.23,25.538,13.965,25.538C13.037,25.538,12.24,24.787,12.24,23.816C12.24,23.169,12.606,22.55,13.227,22.254C21.88,18.151,21.439,12.072,23.937,12.072C25.29,12.155,25.667,13.383,25.667,13.89ZM42.832,31.313C42.832,31.956,42.47,32.572,41.848,32.868C33.355,36.917,33.668,43.105,31.187,43.105C29.832,43.105,29.462,41.861,29.462,41.378C29.462,38.36,37.898,29.589,41.11,29.589C42.11,29.589,42.832,30.419,42.832,31.313ZM42.832,31.313"/>
</g>
  <g id="Semibold-S" transform="matrix(1.0,0.0,0.0,1.0,2016.9649252929687,633.1849448242187)">  <path stroke-miterlimit="4" stroke-width="1px" stroke-linejoin="miter" fill="#000000" stroke-dasharray="none" stroke="none" stroke-linecap="butt" stroke-opacity="1" fill-opacity="1" fill-rule="nonzero" d="M46.291,29.406C46.291,27.654,48.054,27.595,49.523,27.595L49.839,27.595C51.632,27.595,53.41,27.817,55.14,28.224C55.138,28.005,55.17,27.801,55.17,27.585C55.17,12.349,42.822,0,27.585,0C27.359,0,27.057,0.028,26.928,0.033C27.322,1.704,27.586,3.41,27.586,5.155C27.586,5.802,27.556,6.452,27.502,7.095C27.434,7.994,26.68,8.674,25.786,8.674C25.129,8.674,24.058,8.17,24.058,6.953C24.058,6.767,24.135,6.183,24.135,5.155C24.135,3.511,23.878,1.903,23.465,0.339C11.519,2.132,2.101,11.562,0.332,23.523C1.888,23.934,3.498,24.147,5.122,24.147C6.207,24.147,6.801,24.059,6.999,24.059C7.67,24.059,8.776,24.561,8.776,25.782C8.776,27.518,7.037,27.589,5.572,27.589L5.189,27.585C3.43,27.585,1.714,27.322,0.033,26.927C0.028,27.057,0,27.359,0,27.585C0,42.822,12.349,55.17,27.585,55.17C27.808,55.17,28.023,55.142,28.244,55.137C27.854,53.468,27.585,51.765,27.585,50.02C27.585,49.407,27.612,48.793,27.663,48.184C27.738,47.264,28.555,46.61,29.439,46.61C30.204,46.61,31.103,47.358,31.103,48.326C31.103,48.58,31.033,48.959,31.033,50.02C31.033,51.663,31.29,53.269,31.702,54.832C43.641,53.04,53.059,43.615,54.837,31.665C53.269,31.25,51.648,31.032,50.016,31.032C48.888,31.032,48.266,31.128,48.062,31.128C47.767,31.13,46.291,30.872,46.291,29.406ZM25.667,13.89C25.667,16.883,17.23,25.538,13.965,25.538C13.037,25.538,12.24,24.787,12.24,23.816C12.24,23.169,12.606,22.55,13.227,22.254C21.88,18.151,21.439,12.072,23.937,12.072C25.29,12.155,25.667,13.383,25.667,13.89ZM42.832,31.313C42.832,31.956,42.47,32.572,41.848,32.868C33.355,36.917,33.668,43.105,31.187,43.105C29.832,43.105,29.462,41.861,29.462,41.378C29.462,38.36,37.898,29.589,41.11,29.589C42.11,29.589,42.832,30.419,42.832,31.313ZM42.832,31.313"/>
</g>
  <g id="Medium-S" transform="matrix(1.0,0.0,0.0,1.0,1720.2549252929687,633.1849448242187)">  <path fill-opacity="1" stroke-miterlimit="4" stroke-width="1px" stroke-linejoin="miter" stroke-dasharray="none" fill-rule="nonzero" stroke-opacity="1" fill="#000000" stroke="none" stroke-linecap="butt" d="M46.291,29.406C46.291,27.654,48.054,27.595,49.523,27.595L49.839,27.595C51.632,27.595,53.41,27.817,55.14,28.224C55.138,28.005,55.17,27.801,55.17,27.585C55.17,12.349,42.822,0,27.585,0C27.359,0,27.057,0.028,26.928,0.033C27.322,1.704,27.586,3.41,27.586,5.155C27.586,5.802,27.556,6.452,27.502,7.095C27.434,7.994,26.68,8.674,25.786,8.674C25.129,8.674,24.058,8.17,24.058,6.953C24.058,6.767,24.135,6.183,24.135,5.155C24.135,3.511,23.878,1.903,23.465,0.339C11.519,2.132,2.101,11.562,0.332,23.523C1.888,23.934,3.498,24.147,5.122,24.147C6.207,24.147,6.801,24.059,6.999,24.059C7.67,24.059,8.776,24.561,8.776,25.782C8.776,27.518,7.037,27.589,5.572,27.589L5.189,27.585C3.43,27.585,1.714,27.322,0.033,26.927C0.028,27.057,0,27.359,0,27.585C0,42.822,12.349,55.17,27.585,55.17C27.808,55.17,28.023,55.142,28.244,55.137C27.854,53.468,27.585,51.765,27.585,50.02C27.585,49.407,27.612,48.793,27.663,48.184C27.738,47.264,28.555,46.61,29.439,46.61C30.204,46.61,31.103,47.358,31.103,48.326C31.103,48.58,31.033,48.959,31.033,50.02C31.033,51.663,31.29,53.269,31.702,54.832C43.641,53.04,53.059,43.615,54.837,31.665C53.269,31.25,51.648,31.032,50.016,31.032C48.888,31.032,48.266,31.128,48.062,31.128C47.767,31.13,46.291,30.872,46.291,29.406ZM25.667,13.89C25.667,16.883,17.23,25.538,13.965,25.538C13.037,25.538,12.24,24.787,12.24,23.816C12.24,23.169,12.606,22.55,13.227,22.254C21.88,18.151,21.439,12.072,23.937,12.072C25.29,12.155,25.667,13.383,25.667,13.89ZM42.832,31.313C42.832,31.956,42.47,32.572,41.848,32.868C33.355,36.917,33.668,43.105,31.187,43.105C29.832,43.105,29.462,41.861,29.462,41.378C29.462,38.36,37.898,29.589,41.11,29.589C42.11,29.589,42.832,30.419,42.832,31.313ZM42.832,31.313"/>
</g>
  <g id="Regular-S" transform="matrix(1.0,0.0,0.0,1.0,1423.5449252929686,633.1849448242187)">  <path fill="#000000" stroke-dasharray="none" stroke-width="1px" fill-rule="nonzero" stroke-miterlimit="4" stroke-opacity="1" stroke-linejoin="miter" fill-opacity="1" stroke="none" stroke-linecap="butt" d="M46.291,29.406C46.291,27.654,48.054,27.595,49.523,27.595L49.839,27.595C51.632,27.595,53.41,27.817,55.14,28.224C55.138,28.005,55.17,27.801,55.17,27.585C55.17,12.349,42.822,0,27.585,0C27.359,0,27.057,0.028,26.928,0.033C27.322,1.704,27.586,3.41,27.586,5.155C27.586,5.802,27.556,6.452,27.502,7.095C27.434,7.994,26.68,8.674,25.786,8.674C25.129,8.674,24.058,8.17,24.058,6.953C24.058,6.767,24.135,6.183,24.135,5.155C24.135,3.511,23.878,1.903,23.465,0.339C11.519,2.132,2.101,11.562,0.332,23.523C1.888,23.934,3.498,24.147,5.122,24.147C6.207,24.147,6.801,24.059,6.999,24.059C7.67,24.059,8.776,24.561,8.776,25.782C8.776,27.518,7.037,27.589,5.572,27.589L5.189,27.585C3.43,27.585,1.714,27.322,0.033,26.927C0.028,27.057,0,27.359,0,27.585C0,42.822,12.349,55.17,27.585,55.17C27.808,55.17,28.023,55.142,28.244,55.137C27.854,53.468,27.585,51.765,27.585,50.02C27.585,49.407,27.612,48.793,27.663,48.184C27.738,47.264,28.555,46.61,29.439,46.61C30.204,46.61,31.103,47.358,31.103,48.326C31.103,48.58,31.033,48.959,31.033,50.02C31.033,51.663,31.29,53.269,31.702,54.832C43.641,53.04,53.059,43.615,54.837,31.665C53.269,31.25,51.648,31.032,50.016,31.032C48.888,31.032,48.266,31.128,48.062,31.128C47.767,31.13,46.291,30.872,46.291,29.406ZM25.667,13.89C25.667,16.883,17.23,25.538,13.965,25.538C13.037,25.538,12.24,24.787,12.24,23.816C12.24,23.169,12.606,22.55,13.227,22.254C21.88,18.151,21.439,12.072,23.937,12.072C25.29,12.155,25.667,13.383,25.667,13.89ZM42.832,31.313C42.832,31.956,42.47,32.572,41.848,32.868C33.355,36.917,33.668,43.105,31.187,43.105C29.832,43.105,29.462,41.861,29.462,41.378C29.462,38.36,37.898,29.589,41.11,29.589C42.11,29.589,42.832,30.419,42.832,31.313ZM42.832,31.313"/>
</g>
  <g id="Light-S" transform="matrix(1.0,0.0,0.0,1.0,1126.8349252929688,633.1849448242187)">  <path fill-rule="nonzero" stroke-linejoin="miter" stroke-width="1px" stroke="none" stroke-opacity="1" fill-opacity="1" fill="#000000" stroke-linecap="butt" stroke-dasharray="none" stroke-miterlimit="4" d="M46.291,29.406C46.291,27.654,48.054,27.595,49.523,27.595L49.839,27.595C51.632,27.595,53.41,27.817,55.14,28.224C55.138,28.005,55.17,27.801,55.17,27.585C55.17,12.349,42.822,0,27.585,0C27.359,0,27.057,0.028,26.928,0.033C27.322,1.704,27.586,3.41,27.586,5.155C27.586,5.802,27.556,6.452,27.502,7.095C27.434,7.994,26.68,8.674,25.786,8.674C25.129,8.674,24.058,8.17,24.058,6.953C24.058,6.767,24.135,6.183,24.135,5.155C24.135,3.511,23.878,1.903,23.465,0.339C11.519,2.132,2.101,11.562,0.332,23.523C1.888,23.934,3.498,24.147,5.122,24.147C6.207,24.147,6.801,24.059,6.999,24.059C7.67,24.059,8.776,24.561,8.776,25.782C8.776,27.518,7.037,27.589,5.572,27.589L5.189,27.585C3.43,27.585,1.714,27.322,0.033,26.927C0.028,27.057,0,27.359,0,27.585C0,42.822,12.349,55.17,27.585,55.17C27.808,55.17,28.023,55.142,28.244,55.137C27.854,53.468,27.585,51.765,27.585,50.02C27.585,49.407,27.612,48.793,27.663,48.184C27.738,47.264,28.555,46.61,29.439,46.61C30.204,46.61,31.103,47.358,31.103,48.326C31.103,48.58,31.033,48.959,31.033,50.02C31.033,51.663,31.29,53.269,31.702,54.832C43.641,53.04,53.059,43.615,54.837,31.665C53.269,31.25,51.648,31.032,50.016,31.032C48.888,31.032,48.266,31.128,48.062,31.128C47.767,31.13,46.291,30.872,46.291,29.406ZM25.667,13.89C25.667,16.883,17.23,25.538,13.965,25.538C13.037,25.538,12.24,24.787,12.24,23.816C12.24,23.169,12.606,22.55,13.227,22.254C21.88,18.151,21.439,12.072,23.937,12.072C25.29,12.155,25.667,13.383,25.667,13.89ZM42.832,31.313C42.832,31.956,42.47,32.572,41.848,32.868C33.355,36.917,33.668,43.105,31.187,43.105C29.832,43.105,29.462,41.861,29.462,41.378C29.462,38.36,37.898,29.589,41.11,29.589C42.11,29.589,42.832,30.419,42.832,31.313ZM42.832,31.313"/>
</g>
  <g id="Thin-S" transform="matrix(1.0,0.0,0.0,1.0,830.1249252929688,633.1849448242187)">  <path stroke-opacity="1" stroke="none" stroke-linecap="butt" stroke-miterlimit="4" fill="#000000" fill-opacity="1" stroke-dasharray="none" stroke-linejoin="miter" stroke-width="1px" fill-rule="nonzero" d="M46.291,29.406C46.291,27.654,48.054,27.595,49.523,27.595L49.839,27.595C51.632,27.595,53.41,27.817,55.14,28.224C55.138,28.005,55.17,27.801,55.17,27.585C55.17,12.349,42.822,0,27.585,0C27.359,0,27.057,0.028,26.928,0.033C27.322,1.704,27.586,3.41,27.586,5.155C27.586,5.802,27.556,6.452,27.502,7.095C27.434,7.994,26.68,8.674,25.786,8.674C25.129,8.674,24.058,8.17,24.058,6.953C24.058,6.767,24.135,6.183,24.135,5.155C24.135,3.511,23.878,1.903,23.465,0.339C11.519,2.132,2.101,11.562,0.332,23.523C1.888,23.934,3.498,24.147,5.122,24.147C6.207,24.147,6.801,24.059,6.999,24.059C7.67,24.059,8.776,24.561,8.776,25.782C8.776,27.518,7.037,27.589,5.572,27.589L5.189,27.585C3.43,27.585,1.714,27.322,0.033,26.927C0.028,27.057,0,27.359,0,27.585C0,42.822,12.349,55.17,27.585,55.17C27.808,55.17,28.023,55.142,28.244,55.137C27.854,53.468,27.585,51.765,27.585,50.02C27.585,49.407,27.612,48.793,27.663,48.184C27.738,47.264,28.555,46.61,29.439,46.61C30.204,46.61,31.103,47.358,31.103,48.326C31.103,48.58,31.033,48.959,31.033,50.02C31.033,51.663,31.29,53.269,31.702,54.832C43.641,53.04,53.059,43.615,54.837,31.665C53.269,31.25,51.648,31.032,50.016,31.032C48.888,31.032,48.266,31.128,48.062,31.128C47.767,31.13,46.291,30.872,46.291,29.406ZM25.667,13.89C25.667,16.883,17.23,25.538,13.965,25.538C13.037,25.538,12.24,24.787,12.24,23.816C12.24,23.169,12.606,22.55,13.227,22.254C21.88,18.151,21.439,12.072,23.937,12.072C25.29,12.155,25.667,13.383,25.667,13.89ZM42.832,31.313C42.832,31.956,42.47,32.572,41.848,32.868C33.355,36.917,33.668,43.105,31.187,43.105C29.832,43.105,29.462,41.861,29.462,41.378C29.462,38.36,37.898,29.589,41.11,29.589C42.11,29.589,42.832,30.419,42.832,31.313ZM42.832,31.313"/>
</g>
  <g id="Ultralight-S" transform="matrix(1.0,0.0,0.0,1.0,533.4149252929687,633.1849448242187)">  <path stroke-dasharray="none" fill-opacity="1" stroke-linecap="butt" stroke="none" stroke-miterlimit="4" fill-rule="nonzero" stroke-width="1px" fill="#000000" stroke-linejoin="miter" stroke-opacity="1" d="M46.291,29.406C46.291,27.654,48.054,27.595,49.523,27.595L49.839,27.595C51.632,27.595,53.41,27.817,55.14,28.224C55.138,28.005,55.17,27.801,55.17,27.585C55.17,12.349,42.822,0,27.585,0C27.359,0,27.057,0.028,26.928,0.033C27.322,1.704,27.586,3.41,27.586,5.155C27.586,5.802,27.556,6.452,27.502,7.095C27.434,7.994,26.68,8.674,25.786,8.674C25.129,8.674,24.058,8.17,24.058,6.953C24.058,6.767,24.135,6.183,24.135,5.155C24.135,3.511,23.878,1.903,23.465,0.339C11.519,2.132,2.101,11.562,0.332,23.523C1.888,23.934,3.498,24.147,5.122,24.147C6.207,24.147,6.801,24.059,6.999,24.059C7.67,24.059,8.776,24.561,8.776,25.782C8.776,27.518,7.037,27.589,5.572,27.589L5.189,27.585C3.43,27.585,1.714,27.322,0.033,26.927C0.028,27.057,0,27.359,0,27.585C0,42.822,12.349,55.17,27.585,55.17C27.808,55.17,28.023,55.142,28.244,55.137C27.854,53.468,27.585,51.765,27.585,50.02C27.585,49.407,27.612,48.793,27.663,48.184C27.738,47.264,28.555,46.61,29.439,46.61C30.204,46.61,31.103,47.358,31.103,48.326C31.103,48.58,31.033,48.959,31.033,50.02C31.033,51.663,31.29,53.269,31.702,54.832C43.641,53.04,53.059,43.615,54.837,31.665C53.269,31.25,51.648,31.032,50.016,31.032C48.888,31.032,48.266,31.128,48.062,31.128C47.767,31.13,46.291,30.872,46.291,29.406ZM25.667,13.89C25.667,16.883,17.23,25.538,13.965,25.538C13.037,25.538,12.24,24.787,12.24,23.816C12.24,23.169,12.606,22.55,13.227,22.254C21.88,18.151,21.439,12.072,23.937,12.072C25.29,12.155,25.667,13.383,25.667,13.89ZM42.832,31.313C42.832,31.956,42.47,32.572,41.848,32.868C33.355,36.917,33.668,43.105,31.187,43.105C29.832,43.105,29.462,41.861,29.462,41.378C29.462,38.36,37.898,29.589,41.11,29.589C42.11,29.589,42.832,30.419,42.832,31.313ZM42.832,31.313"/>
</g>
 </g>
</svg>
