<svg width="20" height="20" viewBox="0 0 20 20" fill="none" xmlns="http://www.w3.org/2000/svg">
<g clip-path="url(#clip0_1613_64272)">
<path d="M20 7.65859C20 9.88132 19.2541 11.7354 18.1673 13.2534C17.4853 14.1967 16.6969 15.0099 15.8657 15.6929C14.0437 17.2001 12.0618 18.1434 10.9217 18.5988C10.325 18.8373 9.67501 18.8373 9.07832 18.5771C8.85456 18.4795 8.58817 18.3602 8.30048 18.2193C8.14065 18.1325 7.97017 18.0566 7.79968 17.959C7.61854 17.8723 7.4374 17.7747 7.25626 17.6663C7.02184 17.5362 6.78743 17.4061 6.54235 17.2543C5.44486 16.5929 4.23015 15.7255 3.15397 14.6412C2.86628 14.3485 2.57858 14.034 2.3122 13.7196C0.980288 12.0932 0 10.0873 0 7.65859C0 7.60438 0 7.53932 0 7.48511C0.0852424 4.15643 2.61055 1.5 5.70059 1.5C7.42674 1.5 8.96111 2.55173 10.0053 3.88537C11.0495 2.55173 12.5733 1.5 14.2994 1.5C17.4534 1.5 20 4.25402 20 7.65859Z" fill="#FF57AC"/>
<path opacity="0.8" d="M18.1673 13.2534C17.4853 14.1967 16.6969 15.0099 15.8657 15.6929C14.0437 17.2001 12.0618 18.1434 10.9217 18.5988C10.325 18.8373 9.67501 18.8373 9.07832 18.5771C8.85456 18.4795 8.58817 18.3602 8.30048 18.2193C8.14065 18.1325 7.97017 18.0566 7.79968 17.959C7.61854 17.8723 7.4374 17.7747 7.25626 17.6663C7.02184 17.5362 6.78743 17.4061 6.54236 17.2543C5.44486 16.5929 4.23015 15.7255 3.15397 14.6412C2.86628 14.3485 2.57858 14.034 2.3122 13.7196C0.980288 12.0932 0 10.0873 0 7.65859V7.48511C0.106553 7.79954 0.266383 8.13566 0.458178 8.48263C3.26052 13.6329 9.28077 16.0941 14.8855 14.6087C16.0256 14.3051 17.1018 13.8822 17.9968 13.2967C18.082 13.2425 18.146 13.2317 18.1566 13.2425L18.1673 13.2534Z" fill="#B23D78"/>
<path opacity="0.6" d="M1.67288 7.74536C1.67288 7.74536 1.58764 7.74536 1.54502 7.74536C1.10815 7.6803 0.809802 7.26828 0.873734 6.82374C0.990943 6.06475 1.82206 4.46005 3.24987 3.45169C4.44326 2.60597 5.84976 2.32406 7.29888 2.6385C7.73575 2.72524 8.01279 3.15894 7.91689 3.60349C7.83165 4.04803 7.39478 4.32994 6.96857 4.23236C5.94566 4.01551 5.00799 4.19983 4.18753 4.77449C3.05807 5.566 2.49334 6.82374 2.45072 7.07311C2.38679 7.47429 2.04582 7.7562 1.66223 7.7562L1.67288 7.74536Z" fill="url(#paint0_linear_1613_64272)"/>
</g>
<defs>
<linearGradient id="paint0_linear_1613_64272" x1="5.80714" y1="3.39748" x2="1.01331" y2="7.64059" gradientUnits="userSpaceOnUse">
<stop stop-color="white"/>
<stop offset="0.02" stop-color="#FFFBFD"/>
<stop offset="0.37" stop-color="#FFB5DA"/>
<stop offset="0.66" stop-color="#FF82C1"/>
<stop offset="0.88" stop-color="#FF62B1"/>
<stop offset="1" stop-color="#FF57AC"/>
</linearGradient>
<clipPath id="clip0_1613_64272">
<rect width="20" height="17.2722" fill="white" transform="translate(0 1.5)"/>
</clipPath>
</defs>
</svg>
